<?xml version="1.0" encoding="utf-8"?>
<!-- Generator: Adobe Illustrator 21.0.2, SVG Export Plug-In . SVG Version: 6.00 Build 0)  -->
<svg version="1.1" id="Layer_1" xmlns="http://www.w3.org/2000/svg" xmlns:xlink="http://www.w3.org/1999/xlink" x="0px" y="0px"
	 viewBox="0 0 25 25" enable-background="new 0 0 25 25" xml:space="preserve">
<title>Baby-Stroller</title>
<path id="Stroller" fill="#494B4C" d="M17.5,25c-1.39,0-2.6-0.82-3.16-2H8.66c-0.56,1.18-1.77,2-3.16,2C3.57,25,2,23.43,2,21.5
	c0-0.68,0.19-1.31,0.53-1.85C0.9,17.82,0,15.47,0,13v-0.5c0-0.01,0-0.01,0-0.02l0,0c0,0,0,0,0,0c0-0.06,0.01-0.11,0.03-0.16
	c0.21-0.59,0.45-0.96,0.67-1.29c0.2-0.3,0.37-0.55,0.51-0.96c0.1-0.25,0.17-0.51,0.24-0.78c0.24-0.94,0.31-1.87,0.2-2.84
	c0-0.03,0-0.05,0-0.08L1.65,6.26c0-0.24,0.17-0.44,0.4-0.49c0.76-0.15,2.19-0.58,3.31-1.7C5.96,3.47,6.38,2.78,6.61,2
	c0.01-0.02,0.01-0.04,0.02-0.06c0.08-0.18,0.25-0.3,0.45-0.3c0.6-0.02,1.78-0.15,2.9-0.84c0.24-0.15,0.45-0.31,0.64-0.47
	c0.37-0.32,0.91-0.42,1.4-0.25c0.43,0.15,0.74,0.49,0.82,0.9l0,0L14.93,12h5.2l1.62-4.44C21.29,7.19,21,6.63,21,6c0-1.1,0.9-2,2-2
	s2,0.9,2,2s-0.9,2-2,2c-0.12,0-0.23-0.01-0.34-0.03L21.19,12h1.31c0.28,0,0.5,0.22,0.5,0.5v0.25c0,2.52-0.92,4.92-2.59,6.8
	C20.78,20.11,21,20.78,21,21.5C21,23.43,19.43,25,17.5,25z M17.5,19c-1.38,0-2.5,1.12-2.5,2.5s1.12,2.5,2.5,2.5s2.5-1.12,2.5-2.5
	S18.88,19,17.5,19z M5.5,19C4.12,19,3,20.12,3,21.5S4.12,24,5.5,24S8,22.88,8,21.5S6.88,19,5.5,19z M8.96,22h5.07
	C14.01,21.84,14,21.67,14,21.5c0-1.93,1.57-3.5,3.5-3.5c0.85,0,1.62,0.3,2.23,0.8c1.41-1.62,2.21-3.67,2.27-5.81H1
	c0,2.18,0.77,4.26,2.18,5.89C3.8,18.33,4.61,18,5.5,18C7.43,18,9,19.57,9,21.5C9,21.67,8.99,21.84,8.96,22z M1.28,12h8.11
	c-3.03-1.18-5.4-3.12-6.68-4.34C2.68,8.29,2.59,8.92,2.43,9.54c-0.08,0.31-0.17,0.61-0.27,0.88c-0.18,0.51-0.4,0.84-0.61,1.16
	C1.45,11.72,1.36,11.85,1.28,12z M3,6.55c1.5,1.5,5.53,5.04,10.63,5.41C11.05,7.75,8.38,4.43,7.26,3.1
	C6.97,3.72,6.57,4.28,6.06,4.78C5.08,5.76,3.89,6.28,3,6.55z M8.09,2.54c1.03,1.23,3.19,3.92,5.42,7.36l-1.65-8.73
	c-0.02-0.09-0.13-0.13-0.16-0.15c-0.12-0.04-0.3-0.04-0.43,0.07c-0.23,0.19-0.48,0.38-0.76,0.55C9.66,2.17,8.79,2.42,8.09,2.54z
	 M23,5c-0.55,0-1,0.45-1,1s0.45,1,1,1s1-0.45,1-1S23.55,5,23,5z M1.66,6.35L1.66,6.35L1.66,6.35L1.66,6.35z"/>
</svg>
