<?xml version="1.0" encoding="utf-8"?>
<!-- Generator: Adobe Illustrator 21.0.2, SVG Export Plug-In . SVG Version: 6.00 Build 0)  -->
<svg version="1.1" id="Layer_1" xmlns="http://www.w3.org/2000/svg" xmlns:xlink="http://www.w3.org/1999/xlink" x="0px" y="0px"
	 viewBox="0 0 25 25" style="enable-background:new 0 0 25 25;" xml:space="preserve">
<style type="text/css">
	.st0{fill:#494B4C;}
</style>
<title>Nerd</title>
<path class="st0" d="M15,16.7c-0.6,0.8-1.5,1.3-2.5,1.3c-1,0-1.9-0.5-2.5-1.2c-0.2-0.2-0.5-0.2-0.7,0c0,0,0,0,0,0
	C9,17,9,17.3,9.2,17.5c0.8,1,2,1.6,3.3,1.6l0,0c1.3,0,2.5-0.6,3.3-1.7c0.2-0.2,0.1-0.6-0.1-0.8C15.6,16.5,15.2,16.5,15,16.7
	C15,16.7,15,16.7,15,16.7z M22.8,8.9c-0.3-2.2-1.4-4.3-2.9-5.8C15.8-1,9.2-1,5.1,3.1C3.6,4.6,2.5,6.7,2.2,8.9
	C0.8,9.1-0.2,10.4,0,11.8c0.2,1.1,1,2,2.2,2.2c0.5,3,2.2,5.7,4.8,7.3v2.8c0,0.3,0.1,0.6,0.4,0.7C7.5,24.9,7.7,25,7.8,25
	c1-0.2,2-0.6,2.8-1.2c0.2,0.1,0.4,0.2,0.6,0.2h2.5c0.2,0,0.5-0.1,0.7-0.2c0.8,0.6,1.7,1.1,2.7,1.2c0.1,0,0.3,0,0.4-0.1
	c0.3-0.1,0.4-0.4,0.4-0.7v-2.9c2.6-1.6,4.3-4.3,4.8-7.3c1.4-0.2,2.4-1.6,2.1-3C24.7,9.9,23.9,9.1,22.8,8.9L22.8,8.9z M17,9
	c1.7,0,3,1.3,3,3s-1.3,3-3,3s-3-1.3-3-3S15.3,9,17,9z M17,8c-1.5,0-2.9,0.9-3.6,2.2c-0.6-0.2-1.3-0.2-1.9,0c-1-2-3.4-2.8-5.4-1.8
	C5.6,8.7,5.2,9.1,4.8,9.6L3.7,9.1L6.5,7c1.3,0,7.1-0.1,9.2-2c0.8,1,1.9,1.6,3.1,2l2.5,2.2l-1.2,0.5C19.5,8.6,18.3,8,17,8z M8,9
	c1.7,0,3,1.3,3,3s-1.3,3-3,3s-3-1.3-3-3S6.3,9,8,9z M12.5,1c2.5,0,4.9,1,6.7,2.8c1.2,1.2,2,2.6,2.4,4.2l-2.1-1.8
	c-0.1,0-0.1-0.1-0.2-0.1c0,0-2.3-0.7-3-2.1c-0.1-0.2-0.2-0.3-0.4-0.3c-0.2,0-0.4,0.1-0.5,0.2c-1.1,1.7-6.9,2-9,2
	C6.3,6,6.2,6,6.1,6.1L3.4,8C4.5,3.9,8.2,1,12.5,1z M10,23c-0.6,0.4-1.3,0.8-2,1v-3.6c0.7,0.2,1.4,0.6,2,1v1.3C10,22.8,10,22.9,10,23
	z M14,22.8c0,0.1-0.1,0.2-0.2,0.2h-2.5c-0.1,0-0.2-0.1-0.2-0.2v-1.5c0-0.1,0.1-0.2,0.2-0.2h2.5c0.1,0,0.2,0.1,0.2,0.2V22.8z M17,24
	c-0.7-0.3-1.4-0.6-2-1c0-0.1,0-0.1,0-0.2v-1.4c0.6-0.4,1.3-0.8,2-1V24z M22.4,13.1c-0.3,0-0.5,0.2-0.5,0.4c-0.3,2.6-1.7,5-3.9,6.6
	c0-0.3-0.2-0.5-0.4-0.6c-0.6-0.3-2,0.3-2.9,0.9c-0.2-0.3-0.6-0.4-0.9-0.4h-2.5c-0.4,0-0.7,0.2-0.9,0.4c-1.1-0.7-2.3-1.3-2.9-1
	c-0.2,0.1-0.4,0.4-0.4,0.6c-2.2-1.6-3.6-4-3.9-6.6c0-0.2-0.1-0.3-0.3-0.4C2.8,13,2.7,13,2.6,13C1.7,13,1,12.3,1,11.4
	s0.7-1.6,1.6-1.6c0.1,0,0.2,0,0.3-0.1l1.4,0.7c-0.8,2,0.2,4.4,2.2,5.2c2,0.8,4.4-0.2,5.2-2.2c0.3-0.7,0.4-1.6,0.2-2.3
	c0.4-0.1,0.8-0.1,1.2,0c-0.5,2.2,0.9,4.3,3.1,4.7s4.3-0.9,4.7-3.1c0.2-0.8,0.1-1.6-0.2-2.3l1.8-0.7c0.8,0.1,1.5,0.8,1.5,1.6
	C24,12.4,23.3,13.1,22.4,13.1C22.4,13.1,22.4,13.1,22.4,13.1L22.4,13.1z M8,11c0.6,0,1,0.4,1,1s-0.4,1-1,1s-1-0.4-1-1S7.4,11,8,11z
	 M17,11c0.6,0,1,0.4,1,1s-0.4,1-1,1s-1-0.4-1-1S16.4,11,17,11z"/>
</svg>
